<svg width="44" height="38" viewBox="0 0 44 38" fill="none" xmlns="http://www.w3.org/2000/svg">
<path d="M14.8 9.2V16.6L18.4 16.9C25.8 17.6 31.5 20.6 35.1 24.4C31 23 25.8 22.3 19 22L14.8 21.8V28.9L5.00003 19.1L14.8 9.2ZM17.7 0.999996C17.5434 0.991155 17.3872 1.02342 17.2468 1.09358C17.1065 1.16375 16.9869 1.26938 16.9 1.4L0.400033 18.1C0.154055 18.375 0.0180664 18.731 0.0180664 19.1C0.0180664 19.469 0.154055 19.825 0.400033 20.1L16.9 36.6C16.9869 36.7306 17.1065 36.8362 17.2468 36.9064C17.3872 36.9766 17.5434 37.0088 17.7 37C17.8578 36.9874 18.0116 36.9437 18.1524 36.8714C18.2932 36.7992 18.4183 36.6998 18.5206 36.5789C18.6228 36.4581 18.7002 36.3182 18.7481 36.1674C18.7961 36.0165 18.8137 35.8577 18.8 35.7V26C34.5 26.7 39.9 29.8 42.3 35.2C42.7 36 43.1 36.3 43.4 36.3C43.7 36.3 44 35.9 44 35.3C43.8 24.8 34 14.4 18.8 12.9V2.3C18.8137 2.1423 18.7961 1.98346 18.7481 1.83261C18.7002 1.68176 18.6228 1.54189 18.5206 1.42106C18.4183 1.30022 18.2932 1.20081 18.1524 1.12855C18.0116 1.05628 17.8578 1.01259 17.7 0.999996Z" fill="white"/>
</svg>
