<svg width="24" height="31" viewBox="0 0 24 31" fill="none" xmlns="http://www.w3.org/2000/svg">
<circle cx="12" cy="14.2" r="12" fill="#05AC6A"/>
<path d="M12.9301 17.7324H10.5961C10.6026 17.14 10.6514 16.6322 10.7426 16.209C10.8402 15.7858 10.9997 15.4049 11.2211 15.0664C11.4424 14.7214 11.7419 14.3698 12.1195 14.0117C12.419 13.7318 12.6859 13.4681 12.9203 13.2207C13.1612 12.9668 13.35 12.7031 13.4867 12.4297C13.6234 12.1497 13.6918 11.834 13.6918 11.4824C13.6918 11.0853 13.6267 10.7533 13.4965 10.4863C13.3728 10.2194 13.1872 10.0176 12.9398 9.88086C12.699 9.73763 12.3962 9.66602 12.0316 9.66602C11.7322 9.66602 11.449 9.72786 11.182 9.85156C10.9151 9.97526 10.7003 10.1673 10.5375 10.4277C10.3747 10.6816 10.2868 11.0137 10.2738 11.4238H7.68594C7.70547 10.571 7.90729 9.86133 8.29141 9.29492C8.67552 8.72201 9.1931 8.29557 9.84414 8.01562C10.4952 7.72917 11.2243 7.58594 12.0316 7.58594C12.9236 7.58594 13.6853 7.73568 14.3168 8.03516C14.9548 8.32812 15.4398 8.75781 15.7719 9.32422C16.1104 9.89062 16.2797 10.5742 16.2797 11.375C16.2797 11.9479 16.169 12.4622 15.9477 12.918C15.7263 13.3672 15.4333 13.7871 15.0687 14.1777C14.7042 14.5684 14.3103 14.9622 13.8871 15.3594C13.516 15.6914 13.2654 16.0462 13.1352 16.4238C13.0049 16.8014 12.9366 17.2376 12.9301 17.7324ZM10.352 20.7695C10.352 20.3789 10.4822 20.0534 10.7426 19.793C11.0095 19.5326 11.3676 19.4023 11.8168 19.4023C12.266 19.4023 12.6208 19.5326 12.8812 19.793C13.1482 20.0534 13.2816 20.3789 13.2816 20.7695C13.2816 21.1471 13.1482 21.4661 12.8812 21.7266C12.6208 21.987 12.266 22.1172 11.8168 22.1172C11.3676 22.1172 11.0095 21.987 10.7426 21.7266C10.4822 21.4661 10.352 21.1471 10.352 20.7695Z" fill="white"/>
</svg>
